<?xml version="1.0" encoding="UTF-8" standalone="no"?>
<!-- Created with Inkscape (http://www.inkscape.org/) -->

<svg
   xmlns:dc="http://purl.org/dc/elements/1.1/"
   xmlns:cc="http://creativecommons.org/ns#"
   xmlns:rdf="http://www.w3.org/1999/02/22-rdf-syntax-ns#"
   xmlns:svg="http://www.w3.org/2000/svg"
   xmlns="http://www.w3.org/2000/svg"
   xmlns:sodipodi="http://sodipodi.sourceforge.net/DTD/sodipodi-0.dtd"
   xmlns:inkscape="http://www.inkscape.org/namespaces/inkscape"
   width="210mm"
   height="297mm"
   viewBox="0 0 210 297"
   version="1.1"
   id="svg8"
   inkscape:version="0.92.5 (2060ec1f9f, 2020-04-08)"
   sodipodi:docname="cartpole.svg">
  <defs
     id="defs2" />
  <sodipodi:namedview
     id="base"
     pagecolor="#ffffff"
     bordercolor="#666666"
     borderopacity="1.0"
     inkscape:pageopacity="0.0"
     inkscape:pageshadow="2"
     inkscape:zoom="0.9899495"
     inkscape:cx="121.25989"
     inkscape:cy="482.18593"
     inkscape:document-units="mm"
     inkscape:current-layer="layer1"
     showgrid="false"
     inkscape:window-width="1538"
     inkscape:window-height="960"
     inkscape:window-x="62"
     inkscape:window-y="27"
     inkscape:window-maximized="1" />
  <metadata
     id="metadata5">
    <rdf:RDF>
      <cc:Work
         rdf:about="">
        <dc:format>image/svg+xml</dc:format>
        <dc:type
           rdf:resource="http://purl.org/dc/dcmitype/StillImage" />
        <dc:title />
      </cc:Work>
    </rdf:RDF>
  </metadata>
  <g
     inkscape:label="Layer 1"
     inkscape:groupmode="layer"
     id="layer1">
    <path
       style="fill:none;stroke:#000000;stroke-width:0.965;stroke-linecap:butt;stroke-linejoin:miter;stroke-opacity:1;stroke-miterlimit:4;stroke-dasharray:none"
       d="M 20.312484,179.40141 171.0525,179.93594"
       id="path815"
       inkscape:connector-curvature="0" />
    <rect
       style="opacity:1;fill:#999999;fill-opacity:1;stroke-width:0.96499997;stroke-linecap:round;stroke-miterlimit:4;stroke-dasharray:none;stroke-dashoffset:0"
       id="rect817"
       width="32.60688"
       height="16.570711"
       x="79.646317"
       y="172.98694" />
    <rect
       style="opacity:1;fill:#999999;fill-opacity:1;stroke-width:0.96499997;stroke-linecap:round;stroke-miterlimit:4;stroke-dasharray:none;stroke-dashoffset:0"
       id="rect819"
       width="5.3453903"
       height="65.21376"
       x="94.078873"
       y="109.37679" />
    <path
       style="fill:none;stroke:#000000;stroke-width:0.26458332px;stroke-linecap:butt;stroke-linejoin:miter;stroke-opacity:1"
       d="m 86.050043,139.84552 0.267269,33.00778"
       id="path825"
       inkscape:connector-curvature="0" />
    <path
       style="fill:none;stroke:#000000;stroke-width:0.26458332px;stroke-linecap:butt;stroke-linejoin:miter;stroke-opacity:1"
       d="m 106.64055,140.44688 0.26726,33.00778"
       id="path825-3"
       inkscape:connector-curvature="0" />
    <ellipse
       style="opacity:0.98;fill:none;fill-opacity:0;stroke-width:0.2;stroke-linecap:round;stroke-miterlimit:4;stroke-dasharray:none;stroke-dashoffset:0;stroke:#000000;stroke-opacity:1"
       id="path842"
       cx="96.217033"
       cy="139.85741"
       rx="10.423515"
       ry="2.7061069" />
    <ellipse
       style="opacity:1;fill:none;fill-opacity:0.46859903;stroke-width:0.2;stroke-linecap:round;stroke-miterlimit:4;stroke-dasharray:none;stroke-dashoffset:0;stroke:#000000;stroke-opacity:1"
       id="path842-6"
       cx="96.217033"
       cy="143.72093"
       rx="10.423516"
       ry="2.7061071"
       inkscape:transform-center-x="-0.40090429"
       inkscape:transform-center-y="-2.80633" />
    <ellipse
       style="opacity:0.98000004;fill:#999999;fill-opacity:0;stroke-width:0.2;stroke-linecap:round;stroke-miterlimit:4;stroke-dasharray:none;stroke-dashoffset:0"
       id="path859"
       cx="63.8106"
       cy="127.81838"
       rx="10.623963"
       ry="8.6862593" />
    <path
       style="opacity:0.98000004;fill:#e48888;fill-opacity:1;stroke:none;stroke-width:1.2694515;stroke-linecap:round;stroke-miterlimit:4;stroke-dasharray:15.23341843, 15.23341843000000040;stroke-dashoffset:0;stroke-opacity:1"
       d="m 346.1592,551.72575 c -7.31436,-0.99275 -12.85119,-2.43843 -16.70752,-4.36237 l -3.283,-1.6379 -0.15356,-2.38993 c -0.14328,-2.22985 -0.0418,-2.45848 1.51523,-3.41321 2.09199,-1.28278 6.89552,-3.12953 8.23478,-3.16593 0.55559,-0.0151 3.16936,0.36044 5.80838,0.83454 2.63902,0.47411 6.73014,1.02098 9.09137,1.21528 l 4.29315,0.35326 0.14093,6.69226 0.14093,6.69226 -1.9087,-0.0519 c -1.04978,-0.0286 -4.27718,-0.37341 -7.17199,-0.76631 z"
       id="path820"
       inkscape:connector-curvature="0"
       transform="scale(0.26458333)" />
    <path
       style="opacity:0.98000004;fill:#e48888;fill-opacity:1;stroke:none;stroke-width:1.2694515;stroke-linecap:round;stroke-miterlimit:4;stroke-dasharray:15.23341843, 15.23341843;stroke-dashoffset:0;stroke-opacity:1"
       d="m 359.12491,552.69577 -3.40926,-0.19791 v -6.54291 -6.54292 h 7.50565 c 4.1281,0 8.56015,-0.14453 9.84898,-0.32119 l 2.34334,-0.32119 v 6.88718 6.88718 l -4.67195,0.006 c -2.56958,0.003 -5.46746,0.0817 -6.43973,0.17484 -0.97227,0.0931 -3.30193,0.0802 -5.17703,-0.0286 z"
       id="path822"
       inkscape:connector-curvature="0"
       transform="scale(0.26458333)" />
    <path
       style="opacity:0.98000004;fill:#e48888;fill-opacity:1;stroke:none;stroke-width:1.2694515;stroke-linecap:round;stroke-miterlimit:4;stroke-dasharray:15.23341843, 15.23341843;stroke-dashoffset:0;stroke-opacity:1"
       d="m 351.92757,552.2125 c -10.60517,-1.26096 -16.36232,-2.52207 -21.74705,-4.76375 l -3.7593,-1.56499 v -2.46661 c 0,-2.84433 0.37349,-3.20149 5.54551,-5.30307 l 3.20258,-1.30133 7.62152,1.07005 c 4.19183,0.58852 8.58747,1.18729 9.76809,1.33058 l 2.14657,0.26055 v 3.43049 c 0,1.88677 0.14602,4.82754 0.32449,6.53505 0.35689,3.41452 0.58418,3.21136 -3.10241,2.77303 z"
       id="path824"
       inkscape:connector-curvature="0"
       transform="scale(0.26458333)" />
    <path
       style="opacity:0.98000004;fill:#e48888;fill-opacity:1;stroke:none;stroke-width:1.2694515;stroke-linecap:round;stroke-miterlimit:4;stroke-dasharray:15.23341843, 15.23341843;stroke-dashoffset:0;stroke-opacity:1"
       d="m 375.9187,545.50929 v -6.52965 l 2.90419,-0.3228 c 1.5973,-0.17754 4.8361,-0.68683 7.19733,-1.13176 5.43019,-1.02321 6.26757,-0.97308 10.15909,0.60819 3.61412,1.46854 6.00335,3.48506 6.00335,5.06683 0,1.09048 -1.95088,3.24302 -3.78807,4.17963 -3.54822,1.8089 -16.11612,4.65921 -20.54392,4.65921 h -1.93197 z"
       id="path826"
       inkscape:connector-curvature="0"
       transform="scale(0.26458333)" />
    <path
       style="opacity:0.98000004;fill:#e48888;fill-opacity:1;stroke:none;stroke-width:1.2694515;stroke-linecap:round;stroke-miterlimit:4;stroke-dasharray:15.23341843, 15.23341843;stroke-dashoffset:0;stroke-opacity:1"
       d="m 390.509,535.14616 c -0.22939,-0.2294 -7.80303,-1.53574 -11.93865,-2.05925 l -2.65165,-0.33566 v -6.5186 -6.51859 h 1.71757 c 3.16491,0 13.19067,1.95413 16.99408,3.31233 3.79573,1.35546 6.89142,3.27007 7.3906,4.57091 0.57548,1.49966 -0.39031,3.21336 -2.5115,4.45647 -2.90916,1.70487 -8.47547,3.61736 -9.00045,3.09239 z"
       id="path828"
       inkscape:connector-curvature="0"
       transform="scale(0.26458333)" />
    <path
       style="opacity:0.98000004;fill:#e48888;fill-opacity:1;stroke:none;stroke-width:1.2694515;stroke-linecap:round;stroke-miterlimit:4;stroke-dasharray:15.23341843, 15.23341843;stroke-dashoffset:0;stroke-opacity:1"
       d="m 332.68542,534.16948 c -4.74724,-1.75803 -6.49274,-2.93577 -6.67655,-4.50487 -0.0879,-0.75034 -0.38,-1.36426 -0.64912,-1.36426 -1.15713,0 0.78067,-2.12796 3.1918,-3.50501 4.06438,-2.32126 13.30033,-4.47202 22.99722,-5.35532 l 3.6618,-0.33356 v 6.79524 6.79524 l -4.79496,0.33705 c -4.02746,0.28311 -10.97889,1.32358 -13.89286,2.07946 -0.41669,0.10809 -2.14349,-0.3167 -3.83733,-0.94397 z"
       id="path832"
       inkscape:connector-curvature="0"
       transform="scale(0.26458333)" />
    <path
       style="opacity:0.98000004;fill:#e48888;fill-opacity:1;stroke:none;stroke-width:1.2694515;stroke-linecap:round;stroke-miterlimit:4;stroke-dasharray:15.23341843, 15.23341843;stroke-dashoffset:0;stroke-opacity:1"
       d=""
       id="path834"
       inkscape:connector-curvature="0"
       transform="scale(0.26458333)" />
    <path
       style="opacity:0.98000004;fill:#e48888;fill-opacity:1;stroke:none;stroke-width:1.2694515;stroke-linecap:round;stroke-miterlimit:4;stroke-dasharray:15.23341843, 15.23341843;stroke-dashoffset:0;stroke-opacity:1"
       d=""
       id="path836"
       inkscape:connector-curvature="0"
       transform="scale(0.26458333)" />
    <path
       style="opacity:0.98000004;fill:#e48888;fill-opacity:1;stroke:none;stroke-width:0.22440945;stroke-linecap:round;stroke-miterlimit:4;stroke-dasharray:2.69291337, 2.69291337;stroke-dashoffset:0;stroke-opacity:1"
       d="m 325.83532,535.88676 c -0.0283,-2.10008 -0.0446,-3.8248 -0.0362,-3.83271 0.008,-0.008 0.39082,0.23715 0.84995,0.54459 1.53352,1.02687 3.39091,1.86831 6.09562,2.76146 l 1.66253,0.549 -0.97677,0.29184 c -2.83756,0.84779 -5.61846,2.12163 -7.35671,3.36986 l -0.18698,0.13427 z"
       id="path838"
       inkscape:connector-curvature="0"
       transform="scale(0.26458333)" />
    <path
       style="opacity:0.98000004;fill:#e48888;fill-opacity:1;stroke:none;stroke-width:0.63472575;stroke-linecap:round;stroke-miterlimit:4;stroke-dasharray:7.61670922, 7.61670922;stroke-dashoffset:0;stroke-opacity:1"
       d="m 401.51914,539.7362 c -1.16165,-1.00948 -3.51047,-2.18723 -6.26697,-3.1424 l -2.0667,-0.71614 1.73844,-0.57347 c 2.57488,-0.84938 4.28581,-1.64751 5.91363,-2.75864 l 1.45456,-0.99288 0.18084,4.0997 c 0.0995,2.25483 0.13966,4.28219 0.0893,4.50524 -0.0731,0.3241 -0.28262,0.23947 -1.04312,-0.42141 z"
       id="path840"
       inkscape:connector-curvature="0"
       transform="scale(0.26458333)" />
    <rect
       style="opacity:0.98000004;fill:#000000;fill-opacity:0;stroke:none;stroke-width:0.16500001;stroke-linecap:round;stroke-miterlimit:4;stroke-dasharray:none;stroke-dashoffset:0;stroke-opacity:1"
       id="rect850"
       width="5.1449385"
       height="8.15172"
       x="94.112274"
       y="133.66492" />
  </g>
</svg>
