<?xml version="1.0" encoding="UTF-8" standalone="no"?>
<!-- Created with Inkscape (http://www.inkscape.org/) -->

<svg
   xmlns:dc="http://purl.org/dc/elements/1.1/"
   xmlns:cc="http://creativecommons.org/ns#"
   xmlns:rdf="http://www.w3.org/1999/02/22-rdf-syntax-ns#"
   xmlns:svg="http://www.w3.org/2000/svg"
   xmlns="http://www.w3.org/2000/svg"
   xmlns:sodipodi="http://sodipodi.sourceforge.net/DTD/sodipodi-0.dtd"
   xmlns:inkscape="http://www.inkscape.org/namespaces/inkscape"
   width="210mm"
   height="297mm"
   viewBox="0 0 210 297"
   version="1.1"
   id="svg8"
   inkscape:version="0.92.5 (2060ec1f9f, 2020-04-08)"
   sodipodi:docname="cartpole2.svg">
  <defs
     id="defs2" />
  <sodipodi:namedview
     id="base"
     pagecolor="#ffffff"
     bordercolor="#666666"
     borderopacity="1.0"
     inkscape:pageopacity="0.0"
     inkscape:pageshadow="2"
     inkscape:zoom="1.979899"
     inkscape:cx="349.52243"
     inkscape:cy="565.93765"
     inkscape:document-units="mm"
     inkscape:current-layer="layer1"
     showgrid="false"
     inkscape:window-width="1538"
     inkscape:window-height="960"
     inkscape:window-x="62"
     inkscape:window-y="27"
     inkscape:window-maximized="1" />
  <metadata
     id="metadata5">
    <rdf:RDF>
      <cc:Work
         rdf:about="">
        <dc:format>image/svg+xml</dc:format>
        <dc:type
           rdf:resource="http://purl.org/dc/dcmitype/StillImage" />
        <dc:title />
      </cc:Work>
    </rdf:RDF>
  </metadata>
  <g
     inkscape:label="Layer 1"
     inkscape:groupmode="layer"
     id="layer1">
    <path
       style="fill:none;stroke:#000000;stroke-width:0.965;stroke-linecap:butt;stroke-linejoin:miter;stroke-opacity:1;stroke-miterlimit:4;stroke-dasharray:none"
       d="M 20.312484,179.40141 171.0525,179.93594"
       id="path815"
       inkscape:connector-curvature="0" />
    <rect
       style="opacity:1;fill:#999999;fill-opacity:1;stroke-width:0.96499997;stroke-linecap:round;stroke-miterlimit:4;stroke-dasharray:none;stroke-dashoffset:0"
       id="rect817"
       width="32.60688"
       height="16.570711"
       x="79.646317"
       y="172.98694" />
    <path
       style="fill:none;stroke:#000000;stroke-width:0.26458332px;stroke-linecap:butt;stroke-linejoin:miter;stroke-opacity:1"
       d="m 86.050043,139.84552 0.267269,33.00778"
       id="path825"
       inkscape:connector-curvature="0" />
    <path
       style="fill:none;stroke:#000000;stroke-width:0.26458332px;stroke-linecap:butt;stroke-linejoin:miter;stroke-opacity:1"
       d="m 106.64055,140.44688 0.26726,33.00778"
       id="path825-3"
       inkscape:connector-curvature="0" />
    <ellipse
       style="opacity:0.98000004;fill:#999999;fill-opacity:0;stroke-width:0.2;stroke-linecap:round;stroke-miterlimit:4;stroke-dasharray:none;stroke-dashoffset:0"
       id="path859"
       cx="63.8106"
       cy="127.81838"
       rx="10.623963"
       ry="8.6862593" />
    <path
       style="fill:none;stroke:#000000;stroke-width:0.26499999;stroke-linecap:butt;stroke-linejoin:miter;stroke-miterlimit:4;stroke-dasharray:3.18, 3.18;stroke-dashoffset:0;stroke-opacity:1"
       d="M 97.57496,182.83005 96.505882,86.345754"
       id="path899"
       inkscape:connector-curvature="0" />
    <rect
       style="opacity:1;fill:#999999;fill-opacity:1;stroke-width:0.91649312;stroke-linecap:round;stroke-miterlimit:4;stroke-dasharray:none;stroke-dashoffset:0"
       id="rect819-3-3"
       width="4.4867892"
       height="70.078842"
       x="-61.363354"
       y="-179.35489"
       transform="matrix(-0.99945749,0.03293516,-0.20263419,-0.9792545,0,0)" />
    <ellipse
       style="opacity:0.98;fill:none;fill-opacity:0;stroke-width:0.2;stroke-linecap:round;stroke-miterlimit:4;stroke-dasharray:none;stroke-dashoffset:0;stroke:#000000;stroke-opacity:1"
       id="path842"
       cx="96.217033"
       cy="139.85741"
       rx="10.423515"
       ry="2.7061069" />
    <ellipse
       style="opacity:1;fill:none;fill-opacity:0.46859903;stroke-width:0.2;stroke-linecap:round;stroke-miterlimit:4;stroke-dasharray:none;stroke-dashoffset:0;stroke:#000000;stroke-opacity:1"
       id="path842-6"
       cx="96.217033"
       cy="143.72093"
       rx="10.423516"
       ry="2.7061071"
       inkscape:transform-center-x="-0.40090429"
       inkscape:transform-center-y="-2.80633" />
    <path
       style="opacity:0.98000004;fill:#d75494;fill-opacity:0.61352658;stroke:none;stroke-width:0.15748835;stroke-linecap:round;stroke-miterlimit:4;stroke-dasharray:none;stroke-dashoffset:0;stroke-opacity:1"
       d="m 357.73984,552.80418 c -5.73889,-0.32943 -9.63735,-0.67838 -9.84878,-0.88154 -0.19876,-0.191 -3.15145,-13.57728 -3.0396,-13.78034 0.0157,-0.0285 1.38788,0.10654 3.04922,0.30021 4.00599,0.467 11.25947,0.88813 15.29675,0.88813 h 3.25498 v 3.78808 3.78807 h 0.63134 0.63135 v -3.76797 -3.76798 l 1.57836,-0.13151 c 0.8681,-0.0723 3.39664,-0.25537 5.61898,-0.40675 4.45348,-0.30336 9.88647,-1.02981 13.37269,-1.78807 2.90256,-0.63132 3.2322,-0.62187 5.74403,0.16478 4.77584,1.49568 8.14399,3.76302 8.43061,5.67522 0.56687,3.78186 -8.97126,7.56595 -23.12792,9.17559 -6.43506,0.73169 -16.04116,1.06272 -21.59201,0.74408 z"
       id="path849"
       inkscape:connector-curvature="0"
       transform="scale(0.26458333)" />
    <path
       style="opacity:0.98000004;fill:#d75494;fill-opacity:0.61352659;stroke:none;stroke-width:0.15748835;stroke-linecap:round;stroke-miterlimit:4;stroke-dasharray:none;stroke-dashoffset:0;stroke-opacity:1"
       d="m 401.48073,539.7075 c -1.16527,-1.00774 -3.95658,-2.38646 -6.42788,-3.17494 l -1.83039,-0.584 2.2092,-0.79267 c 2.64434,-0.94879 4.06666,-1.65109 5.70635,-2.81762 0.67336,-0.47906 1.27267,-0.82264 1.33179,-0.76351 0.0591,0.0591 0.0764,2.09967 0.0384,4.53453 l -0.0691,4.42701 z"
       id="path851"
       inkscape:connector-curvature="0"
       transform="scale(0.26458333)" />
    <path
       style="opacity:0.98000004;fill:#d75494;fill-opacity:0.61352659;stroke:none;stroke-width:0.15748835;stroke-linecap:round;stroke-miterlimit:4;stroke-dasharray:none;stroke-dashoffset:0;stroke-opacity:1"
       d="m 387.66561,534.64489 c -10.27372,-2.25217 -27.01364,-2.76867 -40.2569,-1.2421 -1.79304,0.20668 -3.32042,0.31544 -3.39418,0.24167 -0.14406,-0.14406 -2.815,-12.83422 -2.72103,-12.92818 0.031,-0.0309 1.13026,-0.22847 2.44293,-0.43893 4.21868,-0.67639 10.31316,-1.16718 16.46566,-1.32601 l 5.99778,-0.15482 v 2.05957 c 0,2.02852 0.01,2.05958 0.63135,2.05958 0.62152,0 0.63134,-0.0319 0.63134,-2.04755 v -2.04755 l 2.58852,0.16231 c 11.06949,0.69408 18.01338,1.76029 24.06615,3.69526 5.69086,1.81928 8.88324,4.27789 8.34406,6.42617 -0.26402,1.05195 -1.8056,2.52949 -3.65072,3.49907 -2.09926,1.10314 -6.76792,2.69872 -7.76768,2.65472 -0.39909,-0.0176 -1.91887,-0.29351 -3.37728,-0.61321 z"
       id="path853"
       inkscape:connector-curvature="0"
       transform="scale(0.26458333)" />
    <path
       style="opacity:0.98000004;fill:#d75494;fill-opacity:0.61352659;stroke:none;stroke-width:0.15748835;stroke-linecap:round;stroke-miterlimit:4;stroke-dasharray:none;stroke-dashoffset:0;stroke-opacity:1"
       d="m 325.95436,538.15898 c -0.0883,-0.64442 -0.16059,-2.24488 -0.16059,-3.55658 0,-3.2914 0.4563,-2.98544 1.21491,0.81462 l 0.59766,2.99377 -0.59061,0.45431 c -0.32484,0.24987 -0.6604,0.45684 -0.74569,0.45993 -0.0853,0.003 -0.22735,-0.52164 -0.31568,-1.16605 z"
       id="path857"
       inkscape:connector-curvature="0"
       transform="scale(0.26458333)" />
    <path
       style="opacity:0.98000004;fill:#d75494;fill-opacity:0.61352659;stroke:none;stroke-width:0.15748835;stroke-linecap:round;stroke-miterlimit:4;stroke-dasharray:none;stroke-dashoffset:0;stroke-opacity:1"
       d="m 328.06661,547.01015 c -2.01305,-1.14815 -2.02081,-1.16305 -2.01594,-3.86744 l 0.004,-2.42311 0.80753,-0.56444 c 0.44414,-0.31044 0.88044,-0.48091 0.96955,-0.37881 0.0891,0.1021 0.47073,1.76055 0.84805,3.68545 0.37732,1.92489 0.74671,3.65794 0.82087,3.8512 0.19355,0.50438 -0.1441,0.43309 -1.43442,-0.30285 z"
       id="path860"
       inkscape:connector-curvature="0"
       transform="scale(0.26458333)" />
    <path
       style="opacity:0.98000004;fill:#d75494;fill-opacity:0.9758454;stroke:none;stroke-width:0.15748835;stroke-linecap:round;stroke-miterlimit:4;stroke-dasharray:none;stroke-dashoffset:0;stroke-opacity:1"
       d="m 345.49174,551.78548 c -7.20569,-1.17887 -9.12457,-1.6063 -13.09234,-2.91634 -1.70465,-0.56283 -2.42168,-0.92571 -2.58361,-1.30756 -0.17984,-0.42406 -1.74918,-7.70075 -1.74918,-8.11055 0,-0.26269 2.32056,-1.25459 4.968,-2.12352 l 2.86392,-0.93999 3.47078,0.69187 c 1.90893,0.38052 3.87292,0.75926 4.36441,0.84164 l 0.89364,0.14978 1.33162,6.50143 c 0.73239,3.57578 1.3891,6.7003 1.45936,6.94337 0.13197,0.45655 -0.36231,0.52579 -1.9266,0.26987 z"
       id="path862"
       inkscape:connector-curvature="0"
       transform="scale(0.26458333)" />
    <path
       style="opacity:0.98000004;fill:#d75494;fill-opacity:0.9758454;stroke:none;stroke-width:0.22272216;stroke-linecap:round;stroke-miterlimit:4;stroke-dasharray:none;stroke-dashoffset:0;stroke-opacity:1"
       d="m 351.73869,552.27139 c -1.95027,-0.17178 -3.625,-0.39138 -3.72162,-0.488 -0.20052,-0.20052 -2.89804,-12.2432 -2.90587,-12.97283 -0.004,-0.38263 0.62094,-0.42847 3.11987,-0.22884 1.71875,0.13731 3.60714,0.31037 4.19643,0.38458 0.58928,0.0742 3.9241,0.24273 7.41071,0.37448 l 6.33929,0.23956 v 3.71848 c 0,3.61786 0.0211,3.71539 0.77873,3.60436 0.73331,-0.10747 0.78324,-0.31854 0.85613,-3.61907 0.0426,-1.92772 0.13828,-3.56582 0.21268,-3.64022 0.0744,-0.0744 3.02396,-0.38961 6.55458,-0.70045 3.53062,-0.31085 8.77818,-0.9613 11.66126,-1.44545 l 5.24195,-0.88027 2.43662,0.74556 c 5.02799,1.53847 8.32947,3.92588 8.32947,6.02332 0,3.81366 -11.88458,7.7029 -27.284,8.92871 -5.38426,0.42859 -18.13548,0.40448 -23.22623,-0.0439 z"
       id="path864"
       inkscape:connector-curvature="0"
       transform="scale(0.26458333)" />
    <path
       style="opacity:0.98000004;fill:#d75494;fill-opacity:0.9758454;stroke:none;stroke-width:0.11136108;stroke-linecap:round;stroke-miterlimit:4;stroke-dasharray:none;stroke-dashoffset:0;stroke-opacity:1"
       d="m 327.86041,546.79818 c -1.66461,-0.97442 -1.75817,-1.18805 -1.75517,-4.00723 l 0.002,-2.07157 0.62028,-0.40178 c 0.34116,-0.22099 0.73324,-0.40179 0.87129,-0.40179 0.28948,0 0.24649,-0.15484 1.0906,3.92857 0.35529,1.71875 0.68747,3.26563 0.73816,3.4375 0.13511,0.45808 -0.0629,0.39697 -1.56738,-0.4837 z"
       id="path866"
       inkscape:connector-curvature="0"
       transform="scale(0.26458333)" />
    <path
       style="opacity:0.98000004;fill:#d75494;fill-opacity:0.9758454;stroke:none;stroke-width:0.11136108;stroke-linecap:round;stroke-miterlimit:4;stroke-dasharray:none;stroke-dashoffset:0;stroke-opacity:1"
       d="m 326.18176,539.00587 c -0.19139,-0.30968 -0.39438,-4.79972 -0.26161,-5.78649 l 0.12014,-0.89285 0.22796,0.53571 c 0.12538,0.29464 0.46344,1.65569 0.75126,3.02454 l 0.5233,2.48883 -0.49667,0.40653 c -0.5672,0.46426 -0.69524,0.4974 -0.86438,0.22373 z"
       id="path868"
       inkscape:connector-curvature="0"
       transform="scale(0.26458333)" />
    <path
       style="opacity:0.98000004;fill:#d75494;fill-opacity:0.9758454;stroke:none;stroke-width:0.11136108;stroke-linecap:round;stroke-miterlimit:4;stroke-dasharray:none;stroke-dashoffset:0;stroke-opacity:1"
       d="m 388.42446,534.71252 c -11.95831,-2.40284 -25.91246,-2.88117 -40.80177,-1.39862 -1.86508,0.18571 -3.4536,0.27511 -3.53005,0.19866 -0.19942,-0.19942 -2.66089,-11.96925 -2.59672,-12.41658 0.0607,-0.42328 0.7043,-0.57416 4.58666,-1.07528 4.16246,-0.53729 14.24032,-1.14284 19.52938,-1.17347 l 0.49107,-0.003 0.003,1.83036 c 0.001,1.0067 0.0705,1.93724 0.1533,2.06787 0.0855,0.13491 0.37364,0.21205 0.66691,0.17857 l 0.51634,-0.0589 0.0505,-2.0143 0.0505,-2.01429 0.84232,0.0923 c 0.46327,0.0508 2.12803,0.17652 3.69946,0.27947 14.87261,0.97426 25.4009,3.58076 29.12027,7.20931 1.6645,1.62386 1.60896,2.89574 -0.19857,4.54773 -0.52277,0.47778 -1.65919,1.23406 -2.52538,1.68063 -1.4909,0.76863 -5.77335,2.31481 -6.93204,2.5028 -0.29464,0.0478 -1.70089,-0.14721 -3.125,-0.43336 z"
       id="path870"
       inkscape:connector-curvature="0"
       transform="scale(0.26458333)" />
    <path
       style="opacity:0.98000004;fill:#d75494;fill-opacity:0.62801933;stroke:none;stroke-width:0.22272216;stroke-linecap:round;stroke-miterlimit:4;stroke-dasharray:none;stroke-dashoffset:0;stroke-opacity:1"
       d="m 400.55372,538.98357 c -1.43639,-0.96107 -2.91939,-1.62342 -6.32208,-2.82359 -0.29394,-0.10368 0.72258,-0.69347 2.32143,-1.34689 1.5644,-0.63935 3.48722,-1.60837 4.27293,-2.15338 l 1.42857,-0.99092 0.10633,2.17152 c 0.0585,1.19433 0.0585,3.09621 0,4.2264 l -0.10633,2.05488 z"
       id="path872"
       inkscape:connector-curvature="0"
       transform="scale(0.26458333)" />
    <path
       style="opacity:0.98000004;fill:#d75494;fill-opacity:0.62801933;stroke:none;stroke-width:0.22272216;stroke-linecap:round;stroke-miterlimit:4;stroke-dasharray:none;stroke-dashoffset:0;stroke-opacity:1"
       d="m 386.89743,534.37953 c -8.54541,-1.7746 -24.32959,-2.41465 -35.89286,-1.45546 -3.63393,0.30144 -6.70881,0.43646 -6.83306,0.30005 -0.47629,-0.52285 -2.56667,-11.88394 -2.24533,-12.20318 0.68042,-0.67595 7.74266,-1.38521 19.68496,-1.97697 l 4.35657,-0.21587 0.10771,2.07053 c 0.0812,1.56094 0.24884,2.09737 0.68108,2.17954 0.45313,0.0861 0.61703,-0.31417 0.78165,-1.90913 0.11456,-1.10997 0.25833,-2.05578 0.3195,-2.1018 0.0612,-0.046 2.60228,0.11588 5.64692,0.35979 15.78711,1.26471 26.07424,4.18444 28.35668,8.04829 1.1699,1.98048 -0.69851,3.9405 -5.76819,6.05102 -3.24056,1.34904 -5.70624,1.57782 -9.19563,0.85319 z"
       id="path874"
       inkscape:connector-curvature="0"
       transform="scale(0.26458333)" />
    <path
       style="opacity:0.98000004;fill:#d75494;fill-opacity:0.62801933;stroke:none;stroke-width:0.22272216;stroke-linecap:round;stroke-miterlimit:4;stroke-dasharray:none;stroke-dashoffset:0;stroke-opacity:1"
       d="m 385.826,534.23569 c -6.31412,-1.17628 -10.15375,-1.48266 -20.17857,-1.6101 -6.37789,-0.0811 -11.82381,0.0473 -15.53249,0.36606 -3.14108,0.27001 -5.81927,0.37697 -5.95153,0.23769 -0.26928,-0.28355 -2.44455,-10.81884 -2.44455,-11.83944 0,-0.54285 0.46706,-0.71897 2.76785,-1.04375 3.33664,-0.471 9.94011,-0.99355 16.60715,-1.31419 l 4.91071,-0.23616 v 1.77857 c 0,1.13897 0.19113,1.93719 0.53149,2.21966 0.62762,0.52088 0.74473,0.28123 1.01622,-2.07956 0.0979,-0.85104 0.23164,-1.59656 0.29726,-1.6567 0.17903,-0.16408 11.5106,0.81298 14.5836,1.25747 12.745,1.84347 20.96026,5.62441 19.65876,9.04761 -0.76784,2.01959 -7.05672,5.20109 -10.71316,5.41971 -1.08972,0.0652 -3.58845,-0.18093 -5.55274,-0.54687 z"
       id="path876"
       inkscape:connector-curvature="0"
       transform="scale(0.26458333)" />
    <rect
       style="opacity:1;fill:#999999;fill-opacity:1;stroke-width:0.39242753;stroke-linecap:round;stroke-miterlimit:4;stroke-dasharray:none;stroke-dashoffset:0"
       id="rect819-3"
       width="3.5379987"
       height="16.293915"
       x="55.988079"
       y="120.90798"
       transform="matrix(0.99589774,0.09048591,0.22565689,0.97420684,0,0)" />
  </g>
</svg>
