<?xml version="1.0" encoding="UTF-8" standalone="no"?>
<!-- Created with Inkscape (http://www.inkscape.org/) -->

<svg
   xmlns:dc="http://purl.org/dc/elements/1.1/"
   xmlns:cc="http://creativecommons.org/ns#"
   xmlns:rdf="http://www.w3.org/1999/02/22-rdf-syntax-ns#"
   xmlns:svg="http://www.w3.org/2000/svg"
   xmlns="http://www.w3.org/2000/svg"
   xmlns:sodipodi="http://sodipodi.sourceforge.net/DTD/sodipodi-0.dtd"
   xmlns:inkscape="http://www.inkscape.org/namespaces/inkscape"
   width="210mm"
   height="297mm"
   viewBox="0 0 210 297"
   version="1.1"
   id="svg8"
   inkscape:version="0.92.5 (2060ec1f9f, 2020-04-08)"
   sodipodi:docname="cartpole1.svg">
  <defs
     id="defs2" />
  <sodipodi:namedview
     id="base"
     pagecolor="#ffffff"
     bordercolor="#666666"
     borderopacity="1.0"
     inkscape:pageopacity="0.0"
     inkscape:pageshadow="2"
     inkscape:zoom="1.979899"
     inkscape:cx="342.53326"
     inkscape:cy="565.02639"
     inkscape:document-units="mm"
     inkscape:current-layer="layer1"
     showgrid="false"
     inkscape:window-width="1538"
     inkscape:window-height="960"
     inkscape:window-x="62"
     inkscape:window-y="27"
     inkscape:window-maximized="1" />
  <metadata
     id="metadata5">
    <rdf:RDF>
      <cc:Work
         rdf:about="">
        <dc:format>image/svg+xml</dc:format>
        <dc:type
           rdf:resource="http://purl.org/dc/dcmitype/StillImage" />
        <dc:title></dc:title>
      </cc:Work>
    </rdf:RDF>
  </metadata>
  <g
     inkscape:label="Layer 1"
     inkscape:groupmode="layer"
     id="layer1">
    <path
       style="fill:none;stroke:#000000;stroke-width:0.965;stroke-linecap:butt;stroke-linejoin:miter;stroke-opacity:1;stroke-miterlimit:4;stroke-dasharray:none"
       d="M 20.312484,179.40141 171.0525,179.93594"
       id="path815"
       inkscape:connector-curvature="0" />
    <rect
       style="opacity:1;fill:#999999;fill-opacity:1;stroke-width:0.96499997;stroke-linecap:round;stroke-miterlimit:4;stroke-dasharray:none;stroke-dashoffset:0"
       id="rect817"
       width="32.60688"
       height="16.570711"
       x="79.646317"
       y="172.98694" />
    <rect
       style="opacity:1;fill:#999999;fill-opacity:1;stroke-width:0.48903403;stroke-linecap:round;stroke-miterlimit:4;stroke-dasharray:none;stroke-dashoffset:0"
       id="rect819"
       width="2.7564228"
       height="32.478531"
       x="166.14743"
       y="81.607971"
       transform="matrix(0.94531315,0.32616415,-0.62392699,0.78148263,0,0)" />
    <path
       style="fill:none;stroke:#000000;stroke-width:0.26458332px;stroke-linecap:butt;stroke-linejoin:miter;stroke-opacity:1"
       d="m 86.050043,139.84552 0.267269,33.00778"
       id="path825"
       inkscape:connector-curvature="0" />
    <path
       style="fill:none;stroke:#000000;stroke-width:0.26458332px;stroke-linecap:butt;stroke-linejoin:miter;stroke-opacity:1"
       d="m 106.64055,140.44688 0.26726,33.00778"
       id="path825-3"
       inkscape:connector-curvature="0" />
    <ellipse
       style="opacity:0.98000004;fill:#999999;fill-opacity:0;stroke-width:0.2;stroke-linecap:round;stroke-miterlimit:4;stroke-dasharray:none;stroke-dashoffset:0"
       id="path859"
       cx="63.8106"
       cy="127.81838"
       rx="10.623963"
       ry="8.6862593" />
    <path
       style="fill:none;stroke:#000000;stroke-width:0.26499999;stroke-linecap:butt;stroke-linejoin:miter;stroke-miterlimit:4;stroke-dasharray:3.18, 3.18;stroke-dashoffset:0;stroke-opacity:1"
       d="M 97.57496,182.83005 96.505882,86.345754"
       id="path899"
       inkscape:connector-curvature="0" />
    <rect
       style="opacity:1;fill:#999999;fill-opacity:1;stroke-width:0.57751757;stroke-linecap:round;stroke-miterlimit:4;stroke-dasharray:none;stroke-dashoffset:0"
       id="rect819-3"
       width="3.2099042"
       height="38.895775"
       x="42.313217"
       y="176.0733"
       transform="matrix(0.79855912,-0.60191638,0.29268447,0.95620908,0,0)" />
    <ellipse
       style="opacity:0.98;fill:none;fill-opacity:0;stroke-width:0.2;stroke-linecap:round;stroke-miterlimit:4;stroke-dasharray:none;stroke-dashoffset:0;stroke:#000000;stroke-opacity:1"
       id="path842"
       cx="96.217033"
       cy="139.85741"
       rx="10.423515"
       ry="2.7061069" />
    <ellipse
       style="opacity:1;fill:none;fill-opacity:0.46859903;stroke-width:0.2;stroke-linecap:round;stroke-miterlimit:4;stroke-dasharray:none;stroke-dashoffset:0;stroke:#000000;stroke-opacity:1"
       id="path842-6"
       cx="96.217033"
       cy="143.72093"
       rx="10.423516"
       ry="2.7061071"
       inkscape:transform-center-x="-0.40090429"
       inkscape:transform-center-y="-2.80633" />
    <path
       style="opacity:0.98000004;fill:#d75493;fill-opacity:0.95686275;stroke:none;stroke-width:0.31497669;stroke-linecap:round;stroke-miterlimit:4;stroke-dasharray:none;stroke-dashoffset:0;stroke-opacity:1"
       d=""
       id="path897"
       inkscape:connector-curvature="0"
       transform="scale(0.26458333)" />
    <path
       style="opacity:0.98000004;fill:#d75493;fill-opacity:0.95686275;stroke:none;stroke-width:0.31497669;stroke-linecap:round;stroke-miterlimit:4;stroke-dasharray:none;stroke-dashoffset:0;stroke-opacity:1"
       d=""
       id="path900"
       inkscape:connector-curvature="0"
       transform="scale(0.26458333)" />
    <path
       style="opacity:0.98000004;fill:#d75493;fill-opacity:0.95686275;stroke:none;stroke-width:0.11136108;stroke-linecap:round;stroke-miterlimit:4;stroke-dasharray:none;stroke-dashoffset:0;stroke-opacity:1"
       d="m 357.22846,552.8367 c -6.68436,-0.32157 -13.36518,-1.11448 -18.53515,-2.19984 l -1.04627,-0.21964 -0.95852,-3.12273 c -0.52719,-1.7175 -0.96039,-3.23245 -0.96266,-3.36654 -0.002,-0.1341 1.10077,-1.64307 2.45122,-3.35327 l 2.45536,-3.10945 0.80357,0.0879 c 0.44196,0.0483 1.88839,0.24769 3.21428,0.443 5.24992,0.77336 12.34144,1.2624 18.32911,1.26401 2.95185,7.8e-4 3.43319,0.0395 3.52679,0.28338 0.0596,0.15535 0.10839,1.88303 0.10839,3.83928 v 3.55683 h 0.53571 0.53572 v -3.82326 -3.82325 l 1.47321,-0.0989 c 0.81027,-0.0544 2.83929,-0.18186 4.50893,-0.28323 5.29234,-0.32133 10.69984,-1.0335 15.1295,-1.99256 2.73035,-0.59114 2.52699,-0.6058 5.67407,0.40914 2.1335,0.68806 5.00522,2.05413 6.12683,2.91452 3.1111,2.38654 2.42652,4.83932 -1.98618,7.11627 -4.88646,2.52142 -13.26848,4.3267 -24.14065,5.19932 -4.08788,0.3281 -13.16892,0.47507 -17.24326,0.27906 z"
       id="path902"
       inkscape:connector-curvature="0"
       transform="scale(0.26458333)" />
    <path
       style="opacity:0.98000004;fill:#d75493;fill-opacity:0.95686275;stroke:none;stroke-width:0.11136108;stroke-linecap:round;stroke-miterlimit:4;stroke-dasharray:none;stroke-dashoffset:0;stroke-opacity:1"
       d="m 401.79315,540.03701 c -1.25497,-1.23565 -5.196,-3.18307 -7.73481,-3.82208 -0.47289,-0.11902 -0.79432,-0.27466 -0.71428,-0.34586 0.08,-0.0712 0.82856,-0.34826 1.66338,-0.61568 2.20043,-0.70489 5.28809,-2.22891 6.47321,-3.19508 l 1.02679,-0.83709 v 4.7342 c 0,2.60381 -0.0201,4.72582 -0.0446,4.71558 -0.0245,-0.0102 -0.32589,-0.29553 -0.66964,-0.63399 z"
       id="path904"
       inkscape:connector-curvature="0"
       transform="scale(0.26458333)" />
    <path
       style="opacity:0.98000004;fill:#d75493;fill-opacity:0.95686275;stroke:none;stroke-width:0.11136108;stroke-linecap:round;stroke-miterlimit:4;stroke-dasharray:none;stroke-dashoffset:0;stroke-opacity:1"
       d="m 389.20387,534.96206 c -11.50263,-2.63526 -29.99372,-3.19632 -43.55366,-1.3215 -1.07058,0.14802 -1.9676,0.24773 -1.99338,0.22159 -0.0258,-0.0261 2.58586,-3.34956 5.80363,-7.38536 l 5.8505,-7.33783 1.12443,-0.11753 c 0.61844,-0.0646 3.0814,-0.11753 5.47324,-0.11753 h 4.34881 v 1.96429 1.96428 h 0.625 0.625 v -1.99013 -1.99014 l 2.63393,0.12447 c 16.17857,0.76452 28.6957,3.89282 31.78555,7.94389 0.65654,0.86077 0.78128,1.96999 0.32154,2.85904 -0.83061,1.6062 -3.79492,3.3605 -8.03732,4.75653 -2.66647,0.87745 -2.93628,0.9004 -5.00727,0.42593 z"
       id="path906"
       inkscape:connector-curvature="0"
       transform="scale(0.26458333)" />
    <path
       style="opacity:0.98000004;fill:#d75493;fill-opacity:0.95686275;stroke:none;stroke-width:0.11136108;stroke-linecap:round;stroke-miterlimit:4;stroke-dasharray:none;stroke-dashoffset:0;stroke-opacity:1"
       d="m 329.07466,532.9515 c -0.85153,-0.42736 -1.91162,-1.05084 -2.35577,-1.38552 l -0.80755,-0.60851 -0.006,-1.19457 -0.006,-1.19458 -0.59298,-0.0554 c -0.57982,-0.0542 -0.58948,-0.0688 -0.43546,-0.65839 0.19595,-0.75008 1.67065,-2.22806 3.00795,-3.01463 1.42116,-0.83589 4.17728,-1.92532 6.66836,-2.63584 2.31824,-0.66123 6.30716,-1.5593 6.55604,-1.47603 0.17246,0.0577 -10.01486,12.86635 -10.29797,12.94777 -0.10084,0.029 -0.88005,-0.29692 -1.73157,-0.72428 z"
       id="path908"
       inkscape:connector-curvature="0"
       transform="scale(0.26458333)" />
    <path
       style="opacity:0.98000004;fill:#d75493;fill-opacity:0.95686275;stroke:none;stroke-width:0.11136108;stroke-linecap:round;stroke-miterlimit:4;stroke-dasharray:none;stroke-dashoffset:0;stroke-opacity:1"
       d="m 325.90029,534.69839 v -2.59838 l 0.58036,0.43816 c 0.3192,0.24098 1.21173,0.75588 1.9834,1.14421 l 1.40304,0.70607 -1.90146,1.45415 c -1.0458,0.79979 -1.93833,1.45416 -1.9834,1.45416 -0.0451,0 -0.0819,-1.16927 -0.0819,-2.59837 z"
       id="path910"
       inkscape:connector-curvature="0"
       transform="scale(0.26458333)" />
    <path
       style="opacity:0.98000004;fill:#d75493;fill-opacity:0.95686275;stroke:none;stroke-width:0.15748835;stroke-linecap:round;stroke-miterlimit:4;stroke-dasharray:none;stroke-dashoffset:0;stroke-opacity:1"
       d="m 334.41419,549.51328 c -2.87748,-0.82291 -6.4174,-2.37701 -7.7777,-3.41457 -1.11949,-0.85387 -1.8242,-2.03459 -1.82538,-3.05834 -0.002,-2.07395 3.93125,-4.56485 9.84944,-6.23696 1.28542,-0.36318 1.55225,-0.358 3.53553,0.0687 1.17985,0.25381 2.12857,0.54729 2.10827,0.65217 -0.0203,0.10488 -1.04308,1.44951 -2.27285,2.98805 -1.22976,1.53855 -2.31547,2.92942 -2.41268,3.09084 -0.0972,0.16141 0.27064,1.70586 0.81744,3.4321 0.54681,1.72625 0.99569,3.16704 0.9975,3.20176 0.006,0.12274 -0.40285,0.0246 -3.01957,-0.7237 z"
       id="path912"
       inkscape:connector-curvature="0"
       transform="scale(0.26458333)" />
    <path
       style="opacity:0.98000004;fill:#d75493;fill-opacity:0.95686275;stroke:none;stroke-width:0.15748835;stroke-linecap:round;stroke-miterlimit:4;stroke-dasharray:none;stroke-dashoffset:0;stroke-opacity:1"
       d="m 323.14793,541.92327 -0.52581,-1.84828 3.61396,-2.71612 c 1.98767,-1.49386 3.75505,-2.71612 3.9275,-2.71612 0.44888,0 3.73347,1.11162 3.73098,1.26269 -0.001,0.0694 -0.84312,0.3924 -1.87106,0.71767 -2.28888,0.72427 -4.82591,1.97958 -6.1995,3.06749 -1.13028,0.8952 -1.78446,1.95227 -2.006,3.24148 -0.13475,0.78415 -0.1789,0.71769 -0.67007,-1.00881 z"
       id="path914"
       inkscape:connector-curvature="0"
       transform="scale(0.26458333)" />
    <rect
       style="opacity:0.98000004;fill:#999999;fill-opacity:1;stroke:none;stroke-width:0.16500001;stroke-linecap:round;stroke-miterlimit:4;stroke-dasharray:none;stroke-dashoffset:0;stroke-opacity:1"
       id="rect916"
       width="4.9444861"
       height="2.80633"
       x="-47.216003"
       y="158.13623"
       transform="rotate(-49.441512)"
       inkscape:transform-center-x="6.0135643"
       inkscape:transform-center-y="-9.6217029" />
  </g>
</svg>
