<?xml version="1.0" encoding="UTF-8" standalone="no"?>
<!-- Created with Inkscape (http://www.inkscape.org/) -->

<svg
   xmlns:dc="http://purl.org/dc/elements/1.1/"
   xmlns:cc="http://creativecommons.org/ns#"
   xmlns:rdf="http://www.w3.org/1999/02/22-rdf-syntax-ns#"
   xmlns:svg="http://www.w3.org/2000/svg"
   xmlns="http://www.w3.org/2000/svg"
   xmlns:sodipodi="http://sodipodi.sourceforge.net/DTD/sodipodi-0.dtd"
   xmlns:inkscape="http://www.inkscape.org/namespaces/inkscape"
   width="210mm"
   height="297mm"
   viewBox="0 0 210 297"
   version="1.1"
   id="svg8"
   inkscape:version="0.92.5 (2060ec1f9f, 2020-04-08)"
   sodipodi:docname="RLsvg.svg">
  <defs
     id="defs2" />
  <sodipodi:namedview
     id="base"
     pagecolor="#ffffff"
     bordercolor="#666666"
     borderopacity="1.0"
     inkscape:pageopacity="0.0"
     inkscape:pageshadow="2"
     inkscape:zoom="0.90798233"
     inkscape:cx="294.93491"
     inkscape:cy="414.09055"
     inkscape:document-units="mm"
     inkscape:current-layer="layer1"
     showgrid="false"
     inkscape:window-width="1538"
     inkscape:window-height="960"
     inkscape:window-x="62"
     inkscape:window-y="27"
     inkscape:window-maximized="1" />
  <metadata
     id="metadata5">
    <rdf:RDF>
      <cc:Work
         rdf:about="">
        <dc:format>image/svg+xml</dc:format>
        <dc:type
           rdf:resource="http://purl.org/dc/dcmitype/StillImage" />
        <dc:title></dc:title>
      </cc:Work>
    </rdf:RDF>
  </metadata>
  <g
     inkscape:label="Layer 1"
     inkscape:groupmode="layer"
     id="layer1">
    <path
       style="fill:none;stroke:#000000;stroke-width:0.26458332px;stroke-linecap:butt;stroke-linejoin:miter;stroke-opacity:1"
       d="M 2.4946365,212.10658 98.500499,243.10063"
       id="path12"
       inkscape:connector-curvature="0" />
    <path
       style="fill:none;stroke:#000000;stroke-width:0.26458332px;stroke-linecap:butt;stroke-linejoin:miter;stroke-opacity:1"
       d="M 98.500499,243.10063 198.2862,203.41313"
       id="path14"
       inkscape:connector-curvature="0" />
    <path
       style="fill:none;stroke:#000000;stroke-width:0.26499999;stroke-linecap:butt;stroke-linejoin:miter;stroke-opacity:1;stroke-miterlimit:4;stroke-dasharray:1.58999992,1.58999992;stroke-dashoffset:0"
       d="M 3.0238032,212.10658 102.80942,172.41908"
       id="path14-3"
       inkscape:connector-curvature="0" />
    <path
       style="fill:none;stroke:#000000;stroke-width:0.26458332;stroke-linecap:butt;stroke-linejoin:miter;stroke-opacity:1;stroke-miterlimit:4;stroke-dasharray:1.5874999,1.5874999;stroke-dashoffset:0"
       d="m 102.28034,172.41908 96.00586,30.99405"
       id="path12-6"
       inkscape:connector-curvature="0" />
    <rect
       style="opacity:0.43000004;fill:#c0c4f9;fill-opacity:1;stroke:none;stroke-width:0.15933949;stroke-linecap:round;stroke-miterlimit:4;stroke-dasharray:none;stroke-dashoffset:0;stroke-opacity:1"
       id="rect65"
       width="100.38151"
       height="72.319427"
       x="236.44881"
       y="1.3907682"
       transform="matrix(0.95113919,0.30876242,0,1,0,0)" />
    <rect
       style="opacity:0.45899999;fill:#c0c4f9;fill-opacity:1;stroke:#0a0000;stroke-width:0.15933949;stroke-linecap:round;stroke-miterlimit:4;stroke-dasharray:none;stroke-dashoffset:0;stroke-opacity:1"
       id="rect65-7"
       width="100.38151"
       height="72.319427"
       x="108.09082"
       y="66.725281"
       transform="matrix(0.95113919,0.30876243,0,1,0,0)" />
    <rect
       style="opacity:0.45899999;fill:#c0c4f9;fill-opacity:1;stroke:none;stroke-width:0.15933949;stroke-linecap:round;stroke-miterlimit:4;stroke-dasharray:none;stroke-dashoffset:0;stroke-opacity:1"
       id="rect65-7-5"
       width="100.38151"
       height="72.319427"
       x="45.067719"
       y="110.78082"
       transform="matrix(0.95113919,0.30876243,0,1,0,0)" />
    <rect
       style="opacity:0.45899999;fill:#c0c4f9;fill-opacity:1;stroke:none;stroke-width:0.15933949;stroke-linecap:round;stroke-miterlimit:4;stroke-dasharray:none;stroke-dashoffset:0;stroke-opacity:1"
       id="rect65-7-5-3"
       width="100.38151"
       height="72.319427"
       x="3.1791384"
       y="138.80556"
       transform="matrix(0.95113919,0.30876243,0,1,0,0)" />
    <path
       style="opacity:0.68500001;fill:none;fill-opacity:1;stroke:none;stroke-width:0.26458332;stroke-linecap:round;stroke-miterlimit:4;stroke-dasharray:1.58749988, 1.58749988;stroke-dashoffset:0;stroke-opacity:1"
       id="path919"
       d="m 67.941464,196.44002 c 0.407921,-2.12637 1.020318,-4.20896 1.747716,-6.24632 0.154696,-0.32751 0.283858,-0.66835 0.464087,-0.98253 1.937477,-3.37751 6.31911,-5.16444 9.37269,-6.93388 1.866918,-0.86829 3.856019,-1.52546 5.907727,-1.77207 0.948616,-0.11402 1.597687,-0.0887 2.542768,-0.0905 1.794089,0.0775 3.609821,0.24044 5.373306,0.59575 1.081998,0.26739 1.888014,0.83106 2.32355,1.85831 0.445109,1.47507 0.412435,3.03862 0.72045,4.54183 0.08167,0.39858 0.198046,0.78925 0.297069,1.18388 0.495437,1.80258 1.264629,3.48065 2.563569,4.8359 0.331038,0.24387 0.752084,1.06849 1.280754,0.88662 0.18447,-0.0635 0.33765,-0.19607 0.51255,-0.28248 1.75943,-1.15094 -0.11491,0.0836 -4.141309,2.34409 -0.127794,0.0718 0.245189,-0.16104 0.361812,-0.2498 0.368091,-0.28014 0.660371,-0.61687 0.95903,-0.96674 0.822801,-1.21254 1.68447,-2.38416 2.647207,-3.48949 0.66594,-0.84222 1.50496,-1.49327 2.34298,-2.14886 0,0 5.1395,-2.07285 5.1395,-2.07285 v 0 c -0.80508,0.7057 -1.76441,1.22826 -2.42892,2.09309 -0.96601,1.06835 -1.87249,2.17725 -2.59565,3.42858 -1.58243,2.23531 -4.144846,3.53525 -6.700417,4.49679 -1.037987,0.22053 -1.456904,-0.48259 -2.08924,-1.18239 -1.285324,-1.48545 -2.079858,-3.23194 -2.587053,-5.12779 -0.106887,-0.40682 -0.228632,-0.81003 -0.320659,-1.22047 -0.322829,-1.43985 -0.37215,-2.93797 -0.825598,-4.3481 -0.341485,-0.87104 -1.102868,-1.22707 -1.988336,-1.42164 -1.714709,-0.32475 -3.458162,-0.55631 -5.204555,-0.58027 -0.947238,0.0163 -1.498145,-0.002 -2.447314,0.13188 -2.024425,0.28663 -3.974552,0.97984 -5.788649,1.90892 1.092356,-0.64256 2.162688,-1.32412 3.277068,-1.92767 0.404479,-0.21907 -0.778682,0.49228 -1.143688,0.77222 -1.199195,0.91972 -2.268397,2.05813 -2.913343,3.43277 -0.750496,1.95567 -1.417555,3.96755 -1.650712,6.05925 0,0 -5.00839,2.47394 -5.00839,2.47394 z"
       inkscape:connector-curvature="0" />
    <path
       style="opacity:0.70499998;fill:none;fill-opacity:0.51010102;stroke:#000000;stroke-width:0.366;stroke-linecap:round;stroke-miterlimit:4;stroke-dasharray:2.92800003,2.92800003;stroke-dashoffset:0;stroke-opacity:1"
       d="m 102.28034,172.41908 c 0,0 6.01641,-62.27638 10.80572,-58.39044 15.17506,-7.52441 11.31621,55.88939 15.73154,57.62193 12.2501,0 11.0217,-21.07807 16.40866,-14.27845 6.17154,21.16267 7.95653,20.82129 7.95653,20.82129 3.93662,11.3327 45.10341,25.21972 45.10341,25.21972"
       id="path1063"
       inkscape:connector-curvature="0"
       sodipodi:nodetypes="cccccc" />
    <path
       style="opacity:0.70499998;fill:none;fill-opacity:0.51010102;stroke:#000000;stroke-width:0.24597797;stroke-linecap:round;stroke-miterlimit:4;stroke-dasharray:2.95173554, 2.95173554000000005;stroke-dashoffset:0;stroke-opacity:1"
       d="m 42.865673,197.01547 c 0,0 9.632,3.02676 14.29872,5.03219 16.475159,3.78509 11.586307,-2.98131 15.930503,-1.97662 6.431061,-17.79375 14.35137,-30.54097 17.107671,0.32744 5.6394,9.91168 19.843463,13.81114 19.843463,13.81114 3.64736,5.33979 27.16317,12.21633 27.16317,12.21633"
       id="path1063-5"
       inkscape:connector-curvature="0"
       sodipodi:nodetypes="cccccc" />
    <path
       style="fill:none;stroke:#0000b9;stroke-width:0.40389612;stroke-linecap:butt;stroke-linejoin:miter;stroke-miterlimit:4;stroke-dasharray:3.23116899, 3.23116899;stroke-dashoffset:0;stroke-opacity:0.64646463"
       d="m 85.18648,186.02483 -0.844141,24.13323"
       id="path1080"
       inkscape:connector-curvature="0" />
    <path
       style="fill:none;stroke:#000000;stroke-width:0.26458332;stroke-linecap:butt;stroke-linejoin:miter;stroke-opacity:1;stroke-miterlimit:4;stroke-dasharray:3.17499981,3.17499981;stroke-dashoffset:0"
       d="m 114.76918,176.2554 1.78962,-62.10702"
       id="path1086"
       inkscape:connector-curvature="0" />
    <path
       style="opacity:0.70499998;fill:none;fill-opacity:0.51010102;stroke:#ff0000;stroke-width:0.77936375;stroke-linecap:round;stroke-miterlimit:4;stroke-dasharray:none;stroke-dashoffset:0;stroke-opacity:1"
       d="m 39.774721,223.70169 c 17.101568,0 36.153774,8.35418 54.768305,3.66405 18.614534,-4.69013 15.688234,3.98883 21.456674,-5.40623 5.76845,-9.39507 7.17867,-6.75031 12.1576,-11.43215 4.97894,-4.68185 -3.57073,-1.76774 9.16831,-4.97747 12.73906,-3.20974 12.86098,2.34194 16.91578,-4.26212 4.05481,-6.60405 9.96976,-6.45926 13.5674,-7.36573"
       id="path1045"
       inkscape:connector-curvature="0" />
    <path
       style="opacity:0.70499998;fill:none;fill-opacity:0.51010102;stroke:#55d400;stroke-width:0.80048186;stroke-linecap:round;stroke-miterlimit:4;stroke-dasharray:none;stroke-dashoffset:0;stroke-opacity:1"
       d="m 39.774721,223.70169 c 7.336416,-8.21186 3.668208,-13.00211 10.800833,-13.45832 7.132625,-0.45622 0,-3.1935 8.96673,-0.91243 8.966728,2.28108 -1.018947,-4.10593 9.985673,1.59675 11.004623,5.70268 27.307766,-6.84322 27.307766,-6.84322 l -0.20379,-6.6151 c -2.037892,-8.66807 5.909887,-13.23022 5.909887,-13.23022 l 9.78188,-1.82485 c 1.63033,-2.05297 2.44548,-6.1589 2.44548,-6.1589"
       id="path1049"
       inkscape:connector-curvature="0" />
  </g>
</svg>
